<?xml version="1.0" encoding="UTF-8"?>
<svg width="600" height="600" viewBox="0 0 600 600" xmlns="http://www.w3.org/2000/svg">
  <rect width="600" height="600" fill="#fdf2f8"/>
  
  <g fill="none" fill-rule="evenodd">
    
    <g transform="translate(40, 40)">
      <path d="M10,40 L30,40 L20,70 Z" fill="#fcd34d"/>
      <circle cx="20" cy="35" r="12" fill="#f472b6"/>
      <circle cx="20" cy="35" r="3" fill="#ffffff" fill-opacity="0.5"/>
    </g>

    <g transform="translate(140, 40)">
      <circle cx="20" cy="20" r="18" fill="#fde047"/>
      <path d="M20,2 A18,18 0 0,1 38,20 C38,30 30,38 20,38 C10,38 2,30 2,20 C2,15 5,5 20,2 Z" fill="#f9a8d4" transform="scale(0.8) translate(5,5)"/>
      <circle cx="20" cy="20" r="6" fill="#fdf2f8"/>
      <rect x="20" y="28" width="2" height="4" fill="#fbbf24" rx="1" transform="rotate(45 21 30)"/>
    </g>

    <g transform="translate(240, 50)">
        <ellipse cx="20" cy="12" rx="15" ry="8" fill="#a7f3d0"/>
        <ellipse cx="20" cy="28" rx="15" ry="8" fill="#a7f3d0"/>
        <rect x="8" y="16" width="24" height="8" rx="4" fill="#6ee7b7"/>
    </g>

    <g transform="translate(340, 40)">
        <circle cx="20" cy="20" r="15" fill="#d4a373"/>
        <circle cx="15" cy="15" r="2" fill="#78350f"/>
        <circle cx="25" cy="18" r="2" fill="#78350f"/>
        <circle cx="20" cy="25" r="2" fill="#78350f"/>
    </g>

    <g transform="translate(440, 30) rotate(15)">
        <path d="M10,0 L30,0 L30,40 L10,40 Z" fill="#f472b6" rx="10"/>
        <rect x="17" y="40" width="6" height="15" fill="#fed7aa"/>
        <path d="M10,0 L30,0 L30,15 L10,15 Z" fill="#ec4899" fill-opacity="0.3"/>
    </g>
    
    <g transform="translate(540, 40)">
        <circle cx="10" cy="25" r="8" fill="#dc2626"/>
        <circle cx="30" cy="20" r="8" fill="#dc2626"/>
        <path d="M10,20 Q20,5 20,0 Q20,5 30,15" stroke="#166534" stroke-width="2" fill="none"/>
        <path d="M20,0 L25,5" stroke="#166534" stroke-width="2"/>
    </g>


    <g transform="translate(40, 140)">
        <path d="M10,25 L30,25 L28,40 L12,40 Z" fill="#c084fc"/>
        <path d="M10,25 Q20,5 30,25" fill="#fbcfe8"/>
        <circle cx="20" cy="15" r="3" fill="#ef4444"/>
    </g>

    <g transform="translate(140, 140) rotate(-10)">
        <path d="M20,40 C10,40 5,25 5,15 Q5,5 20,5 Q35,5 35,15 C35,25 30,40 20,40 Z" fill="#ef4444"/>
        <path d="M10,5 L15,15 L20,5 L25,15 L30,5" stroke="#16a34a" stroke-width="2" fill="none"/>
        <circle cx="20" cy="20" r="1" fill="#fca5a5"/>
    </g>

    <g transform="translate(240, 140) rotate(10)">
      <rect x="18" y="20" width="4" height="30" fill="#e5e7eb"/>
      <circle cx="20" cy="20" r="15" fill="#f87171"/>
      <path d="M20,5 A15,15 0 0,1 35,20" stroke="#ffffff" stroke-width="2" fill="none" stroke-linecap="round"/>
    </g>

    <g transform="translate(340, 150) rotate(30)">
      <circle cx="20" cy="20" r="10" fill="#60a5fa"/>
      <path d="M12,12 L2,2 L8,8 Z" fill="#93c5fd"/>
      <path d="M28,28 L38,38 L32,32 Z" fill="#93c5fd"/>
    </g>
    
    <g transform="translate(440, 130)">
       <path d="M10,40 L30,40 L20,70 Z" fill="#fed7aa"/>
       <path d="M10,40 Q20,10 30,40" fill="#fef3c7"/>
       <path d="M12,30 Q20,5 28,30" fill="#fef3c7"/>
       <path d="M15,20 Q20,0 25,20" fill="#fef3c7"/>
    </g>

    <g transform="translate(540, 140) rotate(-10)">
       <path d="M10,30 C5,30 0,25 0,15 C0,5 10,0 20,5 C30,0 40,5 40,15 C40,25 35,30 30,30 L25,20 L15,20 L10,30 Z" stroke="#d4a373" stroke-width="6" fill="none" stroke-linecap="round"/>
       <path d="M10,15 L30,25 M30,15 L10,25" stroke="#d4a373" stroke-width="4" fill="none" stroke-linecap="round"/>
    </g>


    <g transform="translate(40, 240)">
        <path d="M5,20 Q20,5 35,20 Q30,30 20,30 Q10,30 5,20 Z" fill="#fbbf24"/>
        <path d="M15,12 Q20,20 25,12" stroke="#d97706" stroke-width="1" fill="none"/>
    </g>

    <g transform="translate(140, 240)">
        <path d="M5,20 L35,20 L35,35 L5,35 Z" fill="#fca5a5"/>
        <path d="M5,20 L35,20 L20,5 Z" fill="#fef3c7"/>
        <rect x="5" y="25" width="30" height="5" fill="#ffffff"/>
    </g>
    
    <g transform="translate(240, 240) rotate(-15)">
       <rect x="0" y="0" width="30" height="40" rx="2" fill="#78350f"/>
       <rect x="2" y="2" width="12" height="17" rx="1" fill="#451a03"/>
       <rect x="16" y="2" width="12" height="17" rx="1" fill="#451a03"/>
       <rect x="2" y="21" width="12" height="17" rx="1" fill="#451a03"/>
       <rect x="16" y="21" width="12" height="17" rx="1" fill="#451a03"/>
    </g>

    <g transform="translate(340, 230)">
        <path d="M10,10 L15,40 L35,40 L40,10 Z" fill="#bae6fd" fill-opacity="0.5"/>
        <path d="M10,10 Q25,-5 40,10" fill="#fbcfe8"/>
        <rect x="30" y="0" width="4" height="20" fill="#ef4444" transform="rotate(15 32 10)"/>
        <circle cx="25" cy="5" r="3" fill="#dc2626"/>
    </g>

    <g transform="translate(440, 240)">
        <rect x="5" y="5" width="30" height="30" fill="#fbbf24" rx="2"/>
        <rect x="10" y="10" width="8" height="8" fill="#d97706"/>
        <rect x="22" y="10" width="8" height="8" fill="#d97706"/>
        <rect x="10" y="22" width="8" height="8" fill="#d97706"/>
        <rect x="22" y="22" width="8" height="8" fill="#d97706"/>
    </g>

    <g transform="translate(540, 250) rotate(10)">
        <rect x="0" y="10" width="40" height="15" rx="7" fill="#fde047"/>
        <rect x="0" y="10" width="40" height="8" rx="4" fill="#78350f"/>
    </g>


    <g transform="translate(40, 340)">
        <circle cx="20" cy="20" r="15" fill="#fcd34d"/>
        <path d="M20,20 m-12,0 a12,12 0 1,0 24,0 a12,12 0 1,0 -24,0" stroke="#78350f" stroke-width="4" fill="none" stroke-dasharray="10 5"/>
        <circle cx="20" cy="20" r="13" stroke="#fcd34d" stroke-width="2" fill="none"/>
        <path d="M20,10 Q30,10 30,20 Q30,30 20,30 Q10,30 10,20" stroke="#78350f" stroke-width="3" fill="none"/>
    </g>

    <g transform="translate(140, 340)">
        <path d="M5,35 L10,15 L30,15 L35,35 Z" fill="#fcd34d"/>
        <path d="M10,15 Q20,20 30,15 L30,12 Q20,17 10,12 Z" fill="#78350f"/>
    </g>

    <g transform="translate(240, 340)">
      <circle cx="20" cy="20" r="18" fill="#fde047"/>
      <path d="M20,2 A18,18 0 0,1 38,20 C38,30 30,38 20,38 C10,38 2,30 2,20 C2,15 5,5 20,2 Z" fill="#78350f" transform="scale(0.8) translate(5,5)"/>
      <circle cx="20" cy="20" r="6" fill="#fdf2f8"/>
    </g>

    <g transform="translate(340, 350)">
        <ellipse cx="20" cy="12" rx="15" ry="8" fill="#f9a8d4"/>
        <ellipse cx="20" cy="28" rx="15" ry="8" fill="#f9a8d4"/>
        <rect x="8" y="16" width="24" height="8" rx="4" fill="#db2777"/>
    </g>

    <g transform="translate(440, 340)">
        <path d="M20,35 L10,25 A5,5 0 0,1 20,15 A5,5 0 0,1 30,25 Z" fill="#f87171" transform="scale(1.5) translate(-7,-5)"/>
    </g>

    <g transform="translate(540, 340) rotate(-5)">
      <rect x="18" y="20" width="4" height="30" fill="#e5e7eb"/>
      <circle cx="20" cy="20" r="12" fill="#60a5fa"/>
    </g>


    <g transform="translate(40, 440)">
        <path d="M10,25 L30,25 L28,40 L12,40 Z" fill="#c084fc"/>
        <path d="M10,25 Q20,5 30,25" fill="#bae6fd"/>
    </g>
    
    <g transform="translate(140, 450) rotate(-45)">
      <circle cx="20" cy="20" r="10" fill="#f87171"/>
      <path d="M12,12 L2,2 L8,8 Z" fill="#fca5a5"/>
      <path d="M28,28 L38,38 L32,32 Z" fill="#fca5a5"/>
    </g>
    
    <g transform="translate(240, 440)">
      <path d="M10,40 L30,40 L20,70 Z" fill="#fcd34d"/>
      <circle cx="20" cy="35" r="12" fill="#78350f"/>
    </g>

    <g transform="translate(340, 440) rotate(-10)">
        <path d="M10,0 L30,0 L30,40 L10,40 Z" fill="#fdba74" rx="10"/>
        <rect x="17" y="40" width="6" height="15" fill="#fed7aa"/>
    </g>

    <g transform="translate(440, 440)">
        <circle cx="20" cy="20" r="15" fill="#d4a373"/>
        <path d="M20,20 m-12,0 a12,12 0 1,0 24,0 a12,12 0 1,0 -24,0" stroke="#fef3c7" stroke-width="3" fill="none"/>
    </g>

    <g transform="translate(540, 450)">
        <path d="M5,35 L35,35 L20,10 Z" fill="#fbbf24"/>
        <path d="M5,35 Q20,30 35,35" stroke="#d97706" stroke-width="2" fill="none"/>
        <circle cx="20" cy="20" r="2" fill="#ef4444"/>
        <circle cx="25" cy="25" r="2" fill="#ef4444"/>
    </g>


    <g transform="translate(40, 540)">
        <path d="M10,20 L30,20 L28,35 L12,35 Z" fill="#d4a373"/>
        <path d="M8,20 Q20,5 32,20" fill="#fcd34d"/>
        <circle cx="15" cy="15" r="1.5" fill="#78350f"/>
        <circle cx="25" cy="18" r="1.5" fill="#78350f"/>
    </g>

    <g transform="translate(140, 530)">
      <circle cx="20" cy="20" r="18" fill="#fde047"/>
      <path d="M20,2 A18,18 0 0,1 38,20 C38,30 30,38 20,38 C10,38 2,30 2,20 C2,15 5,5 20,2 Z" fill="#fef08a" transform="scale(0.8) translate(5,5)"/>
      <circle cx="20" cy="20" r="6" fill="#fdf2f8"/>
    </g>

    <g transform="translate(240, 540)">
        <path d="M5,20 L35,20 L35,35 L5,35 Z" fill="#78350f"/>
        <path d="M5,20 L35,20 L20,5 Z" fill="#fcd34d"/>
    </g>

    <g transform="translate(340, 550) rotate(90)">
      <circle cx="20" cy="20" r="10" fill="#4ade80"/>
      <path d="M12,12 L2,2 L8,8 Z" fill="#86efac"/>
      <path d="M28,28 L38,38 L32,32 Z" fill="#86efac"/>
    </g>

    <g transform="translate(440, 530)">
       <path d="M10,40 L30,40 L20,70 Z" fill="#fed7aa"/>
       <path d="M10,40 Q20,10 30,40" fill="#fbcfe8"/>
       <path d="M12,30 Q20,5 28,30" fill="#fbcfe8"/>
       <path d="M15,20 Q20,0 25,20" fill="#fbcfe8"/>
    </g>

    <g transform="translate(540, 540)">
        <circle cx="20" cy="20" r="15" fill="#fdba74"/>
        <circle cx="20" cy="20" r="2" fill="#9a3412"/>
    </g>

    <g stroke="#3b82f6" stroke-width="2" stroke-linecap="round" stroke-opacity="0.2">
       <path d="M50 100 l10 -5 l5 10"/>
       <path d="M150 200 l-5 10 l10 5"/>
       <path d="M250 300 q10 -10 20 0"/>
       <path d="M350 400 q-10 10 0 20"/>
       <path d="M450 500 l10 5"/>
       <path d="M550 50 l-5 5"/>
       <path d="M50 500 l5 10"/>
    </g>
    <g fill="#ec4899" fill-opacity="0.15">
       <circle cx="100" cy="50" r="4"/>
       <circle cx="300" cy="100" r="5"/>
       <circle cx="500" cy="200" r="3"/>
       <circle cx="50" cy="300" r="4"/>
       <circle cx="200" cy="400" r="3"/>
       <circle cx="400" cy="500" r="5"/>
       <circle cx="550" cy="300" r="4"/>
    </g>

  </g>
</svg>
